<?xml version="1.0" encoding="utf-8"?>
<!-- Generator: Adobe Illustrator 22.0.1, SVG Export Plug-In . SVG Version: 6.00 Build 0)  -->
<svg version="1.1" id="Layer_1" xmlns="http://www.w3.org/2000/svg" xmlns:xlink="http://www.w3.org/1999/xlink" x="0px" y="0px"
	 viewBox="0 0 300 300" style="enable-background:new 0 0 300 300;" xml:space="preserve">
<style type="text/css">
	.st0{fill:#CC0000;}
</style>
<g>
	<g id="Last_Page">
		<path class="st0" d="M51.3,33.6c-4.7-4.7-12.3-4.7-17,0s-4.7,12.4,0,17.2l98.6,99.5l-98.6,99.5c-4.7,4.7-4.7,12.4,0,17.2
			s12.3,4.7,17,0l107.1-108.1c2.6-2.6,3.6-5.9,3.4-9.5c-0.2-2.8-1.4-5.7-3.4-7.7L51.3,33.6z"/>
	</g>
</g>
<g>
	<g id="Last_Page_1_">
		<path class="st0" d="M249.3,267c4.7,4.7,12.3,4.7,17,0c4.7-4.7,4.7-12.4,0-17.2l-98.6-99.5l98.6-99.5c4.7-4.7,4.7-12.4,0-17.2
			c-4.7-4.8-12.3-4.7-17,0L142.2,141.7c-2.6,2.6-3.6,5.9-3.4,9.5c0.2,2.8,1.4,5.7,3.4,7.7L249.3,267z"/>
	</g>
</g>
</svg>
